<?xml version="1.0" encoding="utf-8"?>
<svg version="1.1" id="Layer_1" xmlns="http://www.w3.org/2000/svg" xmlns:xlink="http://www.w3.org/1999/xlink" x="0px" y="0px" viewBox="0 0 177 53" style="enable-background: new 0 0 177 53; " xml:space="preserve">
	<style type="text/css">
		.transparent {
			opacity: 0.5;
			fill: #0A85FF;
			enable-background: new;
		}
		.blue {
			fill: #0A85FF;
		}
		.dark {
			fill: #4D4D4D;
		}
	</style>
	<title>NeoBlocks</title>
	<desc>NeoBlocks logo</desc>
	<g id="container">
		<g id="logo">
			<g id="neoblocks">
				<path id="background" class="transparent" d="M29.4,0.3c-1.1,0.8-3.1,2.7-3.1,4.2v26.9c0,1.7,1,3.3,2.5,4l14.3,7.2c0.6,0.3,1.3,0.5,2,0.5c0.1,0,1.6-0.2,1.7-0.2l-26.1,8.9c1.5-0.7,2.6-2.4,2.6-4.2V20c-0.1-1.9-1-3.3-2.6-4L6.4,9.5C5.8,9.2,3.8,9.3,3.1,9.3L29.4,0.3z M0,38.4V14.8V38.4z"/>
				<g id="group" transform="translate(0.000000, 0.601156)">
					<path id="left" class="blue" d="M6.4,8.9l14.3,6.5c1.6,0.7,2.6,2.3,2.6,4.1v27.6c0,2.5-2,4.5-4.5,4.5c-0.7,0-1.4-0.2-2-0.5L2.5,44C1,43.2,0,41.6,0,39.9V13c0-2.5,2-4.5,4.5-4.5C5.2,8.5,5.8,8.6,6.4,8.9z"/>
					<path id="right" class="blue" d="M32.7-0.1l14.3,6.5c1.6,0.7,2.6,2.3,2.6,4.1v27.6c0,2.5-2,4.5-4.5,4.5c-0.7,0-1.4-0.2-2-0.5l-14.3-7.2c-1.5-0.8-2.5-2.3-2.5-4V4c0-2.5,2-4.5,4.5-4.5C31.5-0.5,32.2-0.4,32.7-0.1z"/>
				</g>
			</g>
			<path id="text" class="dark" d="M67.2,19.2c3.4,0,5.1,1.8,5.1,5.5v9h-1.7v-8.9c0-1.4-0.3-2.4-0.9-3.1s-1.5-1-2.7-1c-1.4,0-2.6,0.4-3.4,1.3c-0.9,0.9-1.3,2-1.3,3.5v8.2h-1.7V23.5c0-1.5-0.1-2.8-0.2-3.9H62l0.2,2.6c0.4-1,1.1-1.7,2-2.2C65.1,19.4,66.1,19.2,67.2,19.2z M76.4,26.4L76.4,26.4c0,2,0.4,3.4,1.3,4.5c0.9,1,2.2,1.5,3.8,1.5c1.7,0,3.3-0.6,4.7-1.8l0.7,1.4c-0.6,0.6-1.4,1.1-2.4,1.4c-1,0.3-2,0.5-3,0.5c-2.1,0-3.8-0.7-5.1-2s-1.9-3.1-1.9-5.4c0-1.5,0.3-2.7,0.8-3.9c0.6-1.1,1.3-2,2.3-2.6c1-0.6,2.1-0.9,3.4-0.9c1.9,0,3.3,0.6,4.4,1.8c1,1.2,1.6,2.9,1.6,5v0.4H76.4z M81.2,20.6c-1.3,0-2.4,0.4-3.2,1.2c-0.8,0.8-1.3,1.9-1.5,3.3h9c-0.1-1.5-0.5-2.6-1.3-3.3S82.5,20.6,81.2,20.6z M95,33.9c-1.3,0-2.4-0.3-3.4-0.9c-1-0.6-1.8-1.5-2.3-2.6c-0.5-1.1-0.8-2.4-0.8-3.9s0.3-2.8,0.8-3.9c0.5-1.1,1.3-2,2.3-2.6c1-0.6,2.1-0.9,3.4-0.9c1.3,0,2.4,0.3,3.4,0.9c1,0.6,1.7,1.5,2.3,2.6c0.5,1.1,0.8,2.4,0.8,3.9s-0.3,2.8-0.8,3.9c-0.5,1.1-1.3,2-2.3,2.6C97.4,33.6,96.3,33.9,95,33.9z M95,32.4c1.5,0,2.7-0.5,3.5-1.5c0.8-1,1.2-2.4,1.2-4.3c0-1.8-0.4-3.3-1.2-4.3c-0.8-1-2-1.5-3.4-1.5c-1.5,0-2.6,0.5-3.5,1.5c-0.8,1-1.2,2.5-1.2,4.3c0,1.9,0.4,3.3,1.2,4.3C92.3,31.9,93.5,32.4,95,32.4z M111.1,19.1c1.2,0,2.3,0.3,3.3,0.9c1,0.6,1.7,1.5,2.2,2.6s0.8,2.4,0.8,3.9s-0.3,2.8-0.8,3.9c-0.5,1.1-1.3,2-2.2,2.6c-1,0.6-2.1,0.9-3.3,0.9c-1.1,0-2-0.2-2.9-0.7c-0.8-0.5-1.4-1.1-1.9-2v2.5h-2.8V12.9h2.8v8.9c0.4-0.8,1-1.5,1.9-2C109.1,19.3,110,19.1,111.1,19.1z M110.5,31.6c1.3,0,2.3-0.5,3-1.4s1.1-2.2,1.1-3.8c0-1.6-0.4-2.8-1.1-3.7s-1.7-1.3-3-1.3c-1.3,0-2.3,0.4-3,1.3s-1.1,2.1-1.1,3.8c0,1.6,0.4,2.9,1.1,3.8C108.2,31.2,109.2,31.6,110.5,31.6z M119.3,33.7V12.9h2.8v20.8H119.3z M131,33.9c-1.4,0-2.6-0.3-3.7-0.9c-1.1-0.6-1.9-1.5-2.4-2.6s-0.9-2.4-0.9-3.9s0.3-2.8,0.9-3.9s1.4-2,2.4-2.6c1.1-0.6,2.3-0.9,3.7-0.9c1.4,0,2.6,0.3,3.6,0.9c1.1,0.6,1.9,1.5,2.4,2.6c0.6,1.1,0.9,2.4,0.9,3.9s-0.3,2.8-0.9,3.9c-0.6,1.1-1.4,2-2.4,2.6C133.6,33.6,132.4,33.9,131,33.9z M131,31.6c1.3,0,2.3-0.4,3-1.3s1-2.1,1-3.8c0-1.6-0.4-2.9-1.1-3.8c-0.7-0.9-1.7-1.3-3-1.3c-1.3,0-2.3,0.4-3,1.3s-1.1,2.1-1.1,3.8c0,1.7,0.4,2.9,1.1,3.8C128.7,31.2,129.7,31.6,131,31.6z M146.1,33.9c-1.4,0-2.7-0.3-3.7-0.9c-1.1-0.6-1.9-1.5-2.4-2.6c-0.6-1.1-0.8-2.4-0.8-3.9s0.3-2.8,0.9-3.9c0.6-1.1,1.4-2,2.5-2.6s2.3-0.9,3.8-0.9c1,0,2,0.2,2.9,0.5c0.9,0.3,1.7,0.8,2.2,1.3l-0.9,2.1c-1.3-1.1-2.7-1.6-4-1.6c-1.4,0-2.4,0.4-3.2,1.3c-0.8,0.9-1.2,2.2-1.2,3.8c0,1.6,0.4,2.9,1.2,3.7c0.8,0.9,1.8,1.3,3.2,1.3c1.4,0,2.7-0.5,4-1.6l0.9,2.1c-0.6,0.6-1.4,1-2.3,1.3C148.1,33.7,147.1,33.9,146.1,33.9z M165.8,33.7h-3.6l-6.8-6.7v6.7h-2.8V12.9h2.8v13l6.3-6.4h3.5l-6.8,6.8L165.8,33.7z M171.1,33.9c-2.5,0-4.4-0.6-5.9-1.8l0.8-2.1c1.5,1.1,3.2,1.7,5.1,1.7c1,0,1.7-0.2,2.2-0.5c0.5-0.3,0.8-0.8,0.8-1.4c0-0.5-0.2-0.9-0.5-1.2c-0.3-0.3-0.9-0.5-1.8-0.7l-2.4-0.6c-1.2-0.3-2.2-0.7-2.8-1.4s-1-1.5-1-2.5c0-1.3,0.5-2.3,1.5-3.1c1-0.8,2.4-1.2,4.1-1.2c1,0,2,0.2,2.9,0.5c0.9,0.3,1.7,0.8,2.3,1.4l-0.9,2c-1.4-1.1-2.8-1.6-4.4-1.6c-0.9,0-1.6,0.2-2.1,0.5c-0.5,0.3-0.8,0.8-0.8,1.5c0,0.5,0.2,0.9,0.5,1.2c0.3,0.3,0.8,0.5,1.5,0.7l2.4,0.6c1.4,0.3,2.4,0.8,3,1.4c0.7,0.7,1,1.5,1,2.5c0,1.3-0.5,2.3-1.5,3C174.3,33.5,172.9,33.9,171.1,33.9z"/>
		</g>
	</g>
</svg>
