<?xml version="1.0" encoding="utf-8"?>
<svg version="1.1" id="Layer_1" xmlns="http://www.w3.org/2000/svg" xmlns:xlink="http://www.w3.org/1999/xlink" x="0px" y="0px" viewBox="0 0 53 53" style="enable-background: new 0 0 53 53; " xml:space="preserve">
	<style type="text/css">
		.transparent {
			opacity: 0.5;
			fill: #ffffff;
			enable-background: new;
		}
		.white {
			fill: #ffffff;
		}
	</style>
	<title>NeoBlocks</title>
	<desc>NeoBlocks logo</desc>
	<g id="container">
		<g id="logo">
			<g id="neoblocks" transform="translate(1.000000, 0.000000)">
				<path id="background" class="transparent" d="M29.4,0.3c-1.1,0.8-3.1,2.7-3.1,4.2v26.9c0,1.7,1,3.3,2.5,4l14.3,7.2c0.6,0.3,1.3,0.5,2,0.5c0.1,0,1.6-0.2,1.7-0.2l-26.1,8.9c1.5-0.7,2.6-2.4,2.6-4.2V20c-0.1-1.9-1-3.3-2.6-4L6.4,9.5C5.8,9.2,3.8,9.3,3.1,9.3L29.4,0.3z M0,38.4V14.8V38.4z"/>
				<g id="group" transform="translate(0.000000, 0.601156)">
					<path id="left" class="white" d="M6.4,8.9l14.3,6.5c1.6,0.7,2.6,2.3,2.6,4.1v27.6c0,2.5-2,4.5-4.5,4.5c-0.7,0-1.4-0.2-2-0.5L2.5,44C1,43.2,0,41.6,0,39.9V13c0-2.5,2-4.5,4.5-4.5C5.2,8.5,5.8,8.6,6.4,8.9z"/>
					<path id="right" class="white" d="M32.7-0.1l14.3,6.5c1.6,0.7,2.6,2.3,2.6,4.1v27.6c0,2.5-2,4.5-4.5,4.5c-0.7,0-1.4-0.2-2-0.5l-14.3-7.2c-1.5-0.8-2.5-2.3-2.5-4V4c0-2.5,2-4.5,4.5-4.5C31.5-0.5,32.2-0.4,32.7-0.1z"/>
				</g>
			</g>
		</g>
	</g>
</svg>
